# File created by Blade
# Date/Time:  Tue Sep 30 19:10:28 2014
#---------------------------------------------------------
:version 1.10
:name HOM
:units
  mass 1.0
  length 1.000000
  angle deg
:documentation
     Acclaim Skeleton File
:root
   axis xyz
   order TX TY TZ RX RY RZ
   position 0.000000 0.000000 0.000000
   orientation 0 0 0
:bonedata
   begin
      id 1
      name Spine_dum
      direction 0.000000 1.000000 0.000000
      length 7.508948
      axis 0.0 0.0 0.0 xyz
   end
   begin
      id 2
      name LeftUpLeg_dum
      direction 1.000000 0.000000 0.000000
      length 3.000560
      axis 0.0 0.0 0.0 xyz
   end
   begin
      id 3
      name RightUpLeg_dum
      direction -1.000000 0.000000 0.000000
      length 3.000560
      axis 0.0 0.0 0.0 xyz
   end
   begin
      id 4
      name Spine
      direction 0.000000 1.000000 0.000000
      length 0.000000
      axis 0.0 0.0 0.0 xyz
      dof rx ry rz
   end
   begin
      id 5
      name Spine_dum1
      direction 0.000000 1.000000 0.000000
      length 13.861154
      axis 0.0 0.0 0.0 xyz
   end
   begin
      id 6
      name Spine_dum2
      direction 0.000000 1.000000 0.000000
      length 8.204781
      axis 0.0 0.0 0.0 xyz
   end
   begin
      id 7
      name Spine_dum3
      direction 0.000000 1.000000 0.000000
      length 8.204781
      axis 0.0 0.0 0.0 xyz
   end
   begin
      id 8
      name Head
      direction 0.000000 1.000000 0.000000
      length 4.527550
      axis 0.0 0.0 0.0 xyz
      dof rx ry rz
   end
   begin
      id 9
      name LeftShoulder
      direction 1.000000 0.000000 0.000000
      length 6.635956
      axis 0.0 0.0 -90.0 xyz
      dof rx ry rz
   end
   begin
      id 10
      name LeftArm
      direction 1.000000 0.000000 0.000000
      length 10.274218
      axis 0.0 0.0 -90.0 xyz
      dof rx ry rz
   end
   begin
      id 11
      name LeftForeArm
      direction 1.000000 0.000000 0.000000
      length 8.522147
      axis 0.0 0.0 -90.0 xyz
      dof ry rz rx
   end
   begin
      id 12
      name LeftHand
      direction 0.000000 0.000000 0.000000
      length 0.000000
      axis 0.0 0.0 -90.0 xyz
      dof rx ry rz
   end
   begin
      id 13
      name LeftHand_dum1
      direction 0.000000 0.000000 0.000000
      length 0.000000
      axis 0.0 0.0 -90.0 xyz
   end
   begin
      id 14
      name LeftHand_dum2
      direction 1.000000 0.000000 0.000000
      length 3.937000
      axis 0.0 0.0 -90.0 xyz
   end
   begin
      id 15
      name LeftHandThumb1
      direction 0.000000 0.000000 1.000000
      length 3.937000
      axis 0.0 0.0 -90.0 xyz
      dof rx rz ry
   end
   begin
      id 16
      name RightShoulder
      direction -1.000000 0.000000 0.000000
      length 6.635956
      axis 0.0 0.0 90.0 xyz
      dof rx ry rz
   end
   begin
      id 17
      name RightArm
      direction -1.000000 0.000000 0.000000
      length 10.274218
      axis 0.0 0.0 90.0 xyz
      dof rx ry rz
   end
   begin
      id 18
      name RightForeArm
      direction -1.000000 0.000000 0.000000
      length 8.522147
      axis 0.0 0.0 90.0 xyz
      dof ry rz rx
   end
   begin
      id 19
      name RightHand
      direction 0.000000 0.000000 0.000000
      length 0.000000
      axis 0.0 0.0 90.0 xyz
      dof rx ry rz
   end
   begin
      id 20
      name RightHand_dum1
      direction 0.000000 0.000000 0.000000
      length 0.000000
      axis 0.0 0.0 90.0 xyz
   end
   begin
      id 21
      name RightHand_dum2
      direction -1.000000 0.000000 0.000000
      length 3.937000
      axis 0.0 0.0 90.0 xyz
   end
   begin
      id 22
      name RightHandThumb1
      direction 0.000000 0.000000 1.000000
      length 3.937000
      axis 0.0 0.0 90.0 xyz
      dof rx rz ry
   end
   begin
      id 23
      name LeftUpLeg
      direction 0.000000 -1.000000 0.000000
      length 16.490845
      axis 0.0 0.0 0.0 xyz
      dof rx ry rz
   end
   begin
      id 24
      name LeftLeg
      direction 0.000000 -1.000000 0.000000
      length 14.556576
      axis 0.0 0.0 0.0 xyz
      dof rx ry rz
   end
   begin
      id 25
      name LeftFoot
      direction 0.000000 -0.258819 0.965926
      length 4.831116
      axis 15.0 0.0 0.0 xyz
      dof rx ry rz
   end
   begin
      id 26
      name LeftToeBase
      direction 0.000000 0.000000 1.000000
      length 2.952750
      axis 0.0 0.0 0.0 xyz
      dof rx ry rz
   end
   begin
      id 27
      name RightUpLeg
      direction 0.000000 -1.000000 0.000000
      length 16.490845
      axis 0.0 0.0 0.0 xyz
      dof rx ry rz
   end
   begin
      id 28
      name RightLeg
      direction 0.000000 -1.000000 0.000000
      length 14.556576
      axis 0.0 0.0 0.0 xyz
      dof rx ry rz
   end
   begin
      id 29
      name RightFoot
      direction 0.000000 -0.258819 0.965926
      length 4.831116
      axis 15.0 0.0 0.0 xyz
      dof rx ry rz
   end
   begin
      id 30
      name RightToeBase
      direction 0.000000 0.000000 1.000000
      length 2.952750
      axis 0.0 0.0 0.0 xyz
      dof rx ry rz
   end
:hierarchy
   begin
      root Spine_dum LeftUpLeg_dum RightUpLeg_dum
      Spine_dum Spine
      LeftUpLeg_dum LeftUpLeg
      RightUpLeg_dum RightUpLeg
      Spine Spine_dum1 Spine_dum2 Spine_dum3
      Spine_dum1 Head
      Spine_dum2 LeftShoulder
      Spine_dum3 RightShoulder
      LeftShoulder LeftArm
      LeftArm LeftForeArm
      LeftForeArm LeftHand
      LeftHand LeftHand_dum1 LeftHand_dum2
      LeftHand_dum1 LeftHandThumb1
      RightShoulder RightArm
      RightArm RightForeArm
      RightForeArm RightHand
      RightHand RightHand_dum1 RightHand_dum2
      RightHand_dum1 RightHandThumb1
      LeftUpLeg LeftLeg
      LeftLeg LeftFoot
      LeftFoot LeftToeBase
      RightUpLeg RightLeg
      RightLeg RightFoot
      RightFoot RightToeBase
   end

# File created by Blade
# Date/Time:  Wed Sep 24 19:10:19 2014
# Frame Rate: 120.000 fps
#------------------------------------------------------
:FULLY-SPECIFIED
:DEGREES
281
root -8.070892 32.953386 -3.101996 8.107076 0.717709 4.077631
Spine -9.408921 5.172082 0.597038
Head -1.174739 -4.882970 3.518259
LeftShoulder -8.718019 15.674196 14.237168
LeftArm 19.823720 -26.110970 -66.918466
LeftForeArm 3.878188 -0.000000 64.176211
LeftHand -33.066333 -0.000000 38.117736
LeftHandThumb1 -26.253704 0.000000 33.147579
RightShoulder -20.728603 9.291150 -22.629735
RightArm -15.180900 -32.227569 93.284461
RightForeArm -22.405604 -0.000000 26.261161
RightHand -5.382757 -0.000000 11.293330
RightHandThumb1 -24.326973 -0.000000 -32.862282
LeftUpLeg -74.006263 -1.484002 8.125286
LeftLeg 86.335019 -0.000000 -0.000000
LeftFoot 33.143949 15.096422 -13.837157
LeftToeBase 7.636336 -0.000000 -0.000000
RightUpLeg -7.605782 -3.116960 2.337114
RightLeg 6.880215 -0.000000 -0.000000
RightFoot -9.708135 -9.943450 -9.359701
RightToeBase -0.620202 -0.000000 0.000000
282
root -8.047413 32.962549 -3.095040 8.084907 0.421262 4.176637
Spine -9.413154 5.337763 0.457888
Head -1.084898 -4.922090 3.547277
LeftShoulder -8.754226 15.782901 14.249191
LeftArm 19.729725 -26.125714 -66.894835
LeftForeArm 3.849409 -0.000000 64.258219
LeftHand -33.051082 -0.000000 38.125644
LeftHandThumb1 -26.253704 0.000000 33.147579
RightShoulder -20.694834 9.294636 -22.617210
RightArm -15.156050 -32.269364 93.296004
RightForeArm -22.026046 -0.000000 26.219018
RightHand -5.413359 0.000000 11.327778
RightHandThumb1 -24.326973 -0.000000 -32.862282
LeftUpLeg -73.973552 -1.982070 8.661271
LeftLeg 86.579705 -0.000000 -0.000000
LeftFoot 33.420434 14.171484 -12.772559
LeftToeBase 8.506741 -0.000000 -0.000000
RightUpLeg -7.659388 -2.870283 2.146332
RightLeg 7.036972 -0.000000 -0.000000
RightFoot -9.733671 -9.914173 -9.361432
RightToeBase -0.702098 -0.000000 0.000000
283
root -8.015951 32.974774 -3.088404 8.066908 0.106859 4.327354
Spine -9.419468 5.515576 0.264104
Head -1.002015 -4.936332 3.589863
LeftShoulder -8.813813 15.843320 14.237573
LeftArm 19.626580 -26.153504 -66.872969
LeftForeArm 3.874659 -0.000000 64.329364
LeftHand -33.080716 0.000000 38.130436
LeftHandThumb1 -26.253704 0.000000 33.147579
RightShoulder -20.688408 9.314344 -22.599654
RightArm -15.100117 -32.336464 93.267498
RightForeArm -21.881313 0.000000 26.138559
RightHand -5.330907 -0.000000 11.451434
RightHandThumb1 -24.326973 -0.000000 -32.862282
LeftUpLeg -73.947488 -2.513269 9.133432
LeftLeg 86.837142 -0.000000 -0.000000
LeftFoot 33.768704 13.493345 -12.350759
LeftToeBase 8.017802 -0.000000 -0.000000
RightUpLeg -7.738682 -2.657749 1.904048
RightLeg 7.206041 -0.000000 -0.000000
RightFoot -9.753280 -9.794805 -9.356004
RightToeBase -0.771915 -0.000000 0.000000
284
root -7.985343 32.988185 -3.077608 8.026166 -0.220716 4.469909
Spine -9.423468 5.693637 0.064217
Head -0.866021 -4.934217 3.678219
LeftShoulder -8.870487 16.032292 14.260825
LeftArm 19.580135 -26.191725 -66.902148
LeftForeArm 3.874385 -0.000000 64.412757
LeftHand -33.051420 -0.000000 38.174446
LeftHandThumb1 -26.253704 0.000000 33.147579
RightShoulder -20.641649 9.353010 -22.562169
RightArm -15.071742 -32.408158 93.244084
RightForeArm -21.780151 -0.000000 26.053452
RightHand -5.318088 -0.000000 11.424096
RightHandThumb1 -24.326973 -0.000000 -32.862282
LeftUpLeg -73.918268 -3.141771 9.715519
LeftLeg 87.160786 -0.000000 -0.000000
LeftFoot 34.040520 12.556696 -11.987133
LeftToeBase 8.204458 -0.000000 -0.000000
RightUpLeg -7.783395 -2.480716 1.662453
RightLeg 7.370677 -0.000000 -0.000000
RightFoot -9.790088 -9.632048 -9.331071
RightToeBase -0.826971 -0.000000 0.000000
285
root -7.953513 33.001625 -3.064487 7.957383 -0.556965 4.618585
Spine -9.392378 5.890947 -0.134993
Head -0.756118 -4.955079 3.738033
LeftShoulder -8.912718 16.108587 14.270415
LeftArm 19.435916 -26.226824 -66.865675
LeftForeArm 3.864794 -0.000000 64.491591
LeftHand -33.079803 -0.000000 38.247156
LeftHandThumb1 -26.253704 0.000000 33.147579
RightShoulder -20.581974 9.381533 -22.537680
RightArm -15.025964 -32.412431 93.223824
RightForeArm -21.777473 -0.000000 25.952972
RightHand -5.429988 -0.000000 11.259562
RightHandThumb1 -24.326973 -0.000000 -32.862282
LeftUpLeg -73.885078 -3.779527 10.288012
LeftLeg 87.514670 -0.000000 -0.000000
LeftFoot 34.386319 11.538022 -11.489792
LeftToeBase 8.015806 -0.000000 -0.000000
RightUpLeg -7.798348 -2.333234 1.419095
RightLeg 7.528276 -0.000000 -0.000000
RightFoot -9.826469 -9.463621 -9.334834
RightToeBase -0.855602 -0.000000 0.000000
286
root -7.918113 33.016499 -3.051916 7.894925 -0.935432 4.788978
Spine -9.373810 6.164971 -0.362635
Head -0.625857 -4.993236 3.784536
LeftShoulder -8.918574 16.146276 14.279474
LeftArm 19.251813 -26.232121 -66.772768
LeftForeArm 3.829506 -0.000000 64.549453
LeftHand -33.113146 -0.000000 38.359664
LeftHandThumb1 -26.253704 0.000000 33.147579
RightShoulder -20.555080 9.426175 -22.546814
RightArm -15.013695 -32.452058 93.245260
RightForeArm -21.766871 -0.000000 25.833663
RightHand -5.421056 -0.000000 11.138060
RightHandThumb1 -24.326973 -0.000000 -32.862282
LeftUpLeg -73.856311 -4.392305 10.815428
LeftLeg 87.872277 -0.000000 -0.000000
LeftFoot 34.901282 10.476167 -11.017320
LeftToeBase 6.957730 -0.000000 -0.000000
RightUpLeg -7.829629 -2.281841 1.156460
RightLeg 7.692535 -0.000000 -0.000000
RightFoot -9.855315 -9.197143 -9.425405
RightToeBase -0.988519 -0.000000 0.000000
287
root -7.883413 33.032457 -3.034609 7.809503 -1.347656 4.971529
Spine -9.349391 6.465309 -0.626000
Head -0.475441 -5.046998 3.855942
LeftShoulder -8.915825 16.155321 14.293925
LeftArm 18.982876 -26.232111 -66.607645
LeftForeArm 3.699718 -0.000000 64.635351
LeftHand -33.026049 0.000000 38.439020
LeftHandThumb1 -26.253704 0.000000 33.147579
RightShoulder -20.519668 9.450240 -22.527184
RightArm -14.985082 -32.551475 93.267145
RightForeArm -21.724536 -0.000000 25.717863
RightHand -5.453027 -0.000000 11.038867
RightHandThumb1 -24.326973 -0.000000 -32.862282
LeftUpLeg -73.818230 -5.097692 11.398873
LeftLeg 88.268483 -0.000000 -0.000000
LeftFoot 35.154670 9.355062 -10.468937
LeftToeBase 6.989153 -0.000000 -0.000000
RightUpLeg -7.834308 -2.199215 0.873137
RightLeg 7.851893 -0.000000 -0.000000
RightFoot -9.897302 -8.908726 -9.454879
RightToeBase -1.127148 -0.000000 0.000000
288
root -7.841311 33.049804 -3.014968 7.708008 -1.778169 5.197598
Spine -9.318451 6.774730 -0.922147
Head -0.310671 -5.098804 3.899578
LeftShoulder -8.951309 16.267499 14.322122
LeftArm 18.895136 -26.309147 -66.631311
LeftForeArm 3.730167 -0.000000 64.660129
LeftHand -33.054465 0.000000 38.464113
LeftHandThumb1 -26.253704 0.000000 33.147579
RightShoulder -20.485642 9.444272 -22.502492
RightArm -14.889067 -32.633264 93.237248
RightForeArm -21.949064 0.000000 25.599710
RightHand -5.394499 -0.000000 11.284778
RightHandThumb1 -24.326973 -0.000000 -32.862282
LeftUpLeg -73.768770 -5.795011 11.884101
LeftLeg 88.669103 -0.000000 -0.000000
LeftFoot 35.533854 8.112041 -9.800609
LeftToeBase 6.944668 -0.000000 -0.000000
RightUpLeg -7.841774 -2.105574 0.540199
RightLeg 8.036062 -0.000000 -0.000000
RightFoot -9.927387 -8.683767 -9.587823
RightToeBase -1.223861 -0.000000 0.000000
289
root -7.788072 33.069823 -2.983552 7.510962 -2.281036 5.523602
Spine -9.201262 7.125399 -1.323549
Head -0.136947 -5.146806 3.940970
LeftShoulder -8.987204 16.347625 14.298590
LeftArm 18.741212 -26.429362 -66.558730
LeftForeArm 3.726770 -0.000000 64.701765
LeftHand -33.108564 -0.000000 38.545894
LeftHandThumb1 -26.253704 0.000000 33.147579
RightShoulder -20.418900 9.491132 -22.466066
RightArm -14.855333 -32.767930 93.264675
RightForeArm -21.931325 0.000000 25.469290
RightHand -5.387957 -0.000000 11.341312
RightHandThumb1 -24.326973 -0.000000 -32.862282
LeftUpLeg -73.619622 -6.476680 12.205172
LeftLeg 89.123533 -0.000000 -0.000000
LeftFoot 35.867318 6.950529 -9.227103
LeftToeBase 6.537821 -0.000000 -0.000000
RightUpLeg -7.730241 -1.982887 0.060199
RightLeg 8.206567 -0.000000 -0.000000
RightFoot -10.060024 -8.272539 -9.552371
RightToeBase -1.280660 -0.000000 0.000000
290
root -7.747678 33.087764 -2.962615 7.402430 -2.791056 5.751625
Spine -9.176365 7.507030 -1.638925
Head 0.018723 -5.210118 3.964873
LeftShoulder -9.032946 16.475906 14.323267
LeftArm 18.595261 -26.469487 -66.494362
LeftForeArm 3.629282 -0.000000 64.739423
LeftHand -33.005307 0.000000 38.470532
LeftHandThumb1 -26.253704 0.000000 33.147579
RightShoulder -20.368362 9.583013 -22.484183
RightArm -14.880664 -32.911378 93.365571
RightForeArm -21.841871 -0.000000 25.303484
RightHand -5.364366 -0.000000 11.334495
RightHandThumb1 -24.326973 -0.000000 -32.862282
LeftUpLeg -73.591195 -7.149720 12.676576
LeftLeg 89.574177 -0.000000 -0.000000
LeftFoot 36.322536 5.566007 -8.685292
LeftToeBase 6.276049 -0.000000 -0.000000
RightUpLeg -7.750926 -1.748692 -0.283134
RightLeg 8.411144 -0.000000 -0.000000
RightFoot -10.112985 -8.093071 -9.584259
RightToeBase -1.314542 -0.000000 0.000000
291
root -7.702549 33.107128 -2.941882 7.288352 -3.308764 6.012347
Spine -9.147629 7.897735 -1.983972
Head 0.168891 -5.271289 3.981294
LeftShoulder -9.082533 16.551381 14.305494
LeftArm 18.425717 -26.537272 -66.374852
LeftForeArm 3.604720 0.000000 64.758642
LeftHand -33.054210 -0.000000 38.597680
LeftHandThumb1 -26.253704 0.000000 33.147579
RightShoulder -20.318718 9.583384 -22.454916
RightArm -14.759757 -33.060537 93.379441
RightForeArm -21.828386 -0.000000 25.147327
RightHand -5.453675 0.000000 11.392883
RightHandThumb1 -24.326973 -0.000000 -32.862282
LeftUpLeg -73.590910 -7.865406 13.106378
LeftLeg 90.026133 -0.000000 -0.000000
LeftFoot 36.704473 4.361561 -8.103176
LeftToeBase 6.034658 -0.000000 -0.000000
RightUpLeg -7.792618 -1.575187 -0.665133
RightLeg 8.647031 -0.000000 -0.000000
RightFoot -10.175933 -7.850534 -9.617606
RightToeBase -1.378655 -0.000000 0.000000
292
root -7.665277 33.125308 -2.924609 7.211825 -3.869727 6.203015
Spine -9.170242 8.343366 -2.261703
Head 0.337084 -5.370237 3.922741
LeftShoulder -9.105308 16.623799 14.309441
LeftArm 18.202994 -26.617382 -66.265217
LeftForeArm 3.502884 -0.000000 64.785057
LeftHand -32.943293 -0.000000 38.629371
LeftHandThumb1 -26.253704 0.000000 33.147579
RightShoulder -20.260468 9.681579 -22.482295
RightArm -14.774086 -33.183119 93.478298
RightForeArm -21.810924 0.000000 24.963896
RightHand -5.383555 0.000000 11.543083
RightHandThumb1 -24.326973 -0.000000 -32.862282
LeftUpLeg -73.647501 -8.536010 13.630665
LeftLeg 90.495783 -0.000000 -0.000000
LeftFoot 36.855406 3.526655 -8.111501
LeftToeBase 6.717674 -0.000000 -0.000000
RightUpLeg -7.878949 -1.350724 -0.963703
RightLeg 8.871026 -0.000000 -0.000000
RightFoot -10.193063 -7.641445 -9.729585
RightToeBase -1.415098 -0.000000 0.000000
293
root -7.619489 33.144912 -2.901498 7.092732 -4.480687 6.470850
Spine -9.154882 8.802648 -2.633628
Head 0.479695 -5.392413 3.944724
LeftShoulder -9.171478 16.765520 14.304078
LeftArm 18.073640 -26.767400 -66.215511
LeftForeArm 3.546662 -0.000000 64.816590
LeftHand -33.033447 0.000000 38.649990
LeftHandThumb1 -26.253704 0.000000 33.147579
RightShoulder -20.187927 9.738086 -22.459439
RightArm -14.696493 -33.314770 93.518690
RightForeArm -21.811675 -0.000000 24.774434
RightHand -5.320381 -0.000000 11.554689
RightHandThumb1 -24.326973 -0.000000 -32.862282
LeftUpLeg -73.653142 -9.168534 13.992436
LeftLeg 91.000953 -0.000000 -0.000000
LeftFoot 37.075471 2.625853 -7.724357
LeftToeBase 7.461789 -0.000000 -0.000000
RightUpLeg -7.937009 -1.134046 -1.361807
RightLeg 9.108342 -0.000000 -0.000000
RightFoot -10.258321 -7.352709 -9.729876
RightToeBase -1.563702 -0.000000 0.000000
